<svg xmlns="http://www.w3.org/2000/svg" version="1.1" xmlns:xlink="http://www.w3.org/1999/xlink" xmlns:svgjs="http://svgjs.dev/svgjs" width="2000" height="1247" viewBox="0 0 2000 1247"><g transform="matrix(1,0,0,1,-1.2121212121212466,244.36757808857806)"><svg viewBox="0 0 396 247" data-background-color="#ffffff" preserveAspectRatio="xMidYMid meet" height="1247" width="2000" xmlns="http://www.w3.org/2000/svg" xmlns:xlink="http://www.w3.org/1999/xlink"><g id="tight-bounds" transform="matrix(1,0,0,1,0.2400000000000091,-0.09999999999999432)"><svg viewBox="0 0 395.52 247.2" height="247.2" width="395.52"><g><svg></svg></g><g><svg viewBox="0 0 395.52 247.2" height="247.2" width="395.52"><g transform="matrix(1,0,0,1,75.54432,58.629838489335214)"><svg viewBox="0 0 244.43135999999998 129.94032302132956" height="129.94032302132956" width="244.43135999999998"><g><svg viewBox="0 0 244.43135999999998 129.94032302132956" height="129.94032302132956" width="244.43135999999998"><g><svg viewBox="0 0 244.43135999999998 80.7114377593066" height="80.7114377593066" width="244.43135999999998"><g id="textblocktransform"><svg viewBox="0 0 244.43135999999998 80.7114377593066" height="80.7114377593066" width="244.43135999999998" id="textblock"><g><svg viewBox="0 0 244.43135999999998 50.02006002728512" height="50.02006002728512" width="244.43135999999998"><g transform="matrix(1,0,0,1,0,0)"><svg width="244.43135999999998" viewBox="3.5 -29.5 146.59 30" height="50.02006002728512" data-palette-color="#a3c0c4"><path d="M6.2-3.05Q3.5-6.6 3.5-14.5 3.5-22.4 6.2-25.95 8.9-29.5 15.15-29.5 21.4-29.5 24.15-26.05L24.15-26.05 23.05-25.05Q20.85-28 15.15-28L15.15-28Q12.65-28 10.95-27.48 9.25-26.95 7.83-25.53 6.4-24.1 5.7-21.38 5-18.65 5-14.5 5-10.35 5.7-7.63 6.4-4.9 7.83-3.48 9.25-2.05 10.95-1.53 12.65-1 15.15-1L15.15-1Q20.85-1 23.05-3.95L23.05-3.95 24.15-2.95Q21.4 0.5 15.15 0.5 8.9 0.5 6.2-3.05ZM34.25 0L34.25-1.5 50.55-1.5 40.3-25.65 29.4 0 27.8 0 40.3-29.5 52.8 0 34.25 0ZM60-1.5L75.2-1.5 75.2 0 58.5 0 58.5-29 60-29 60-1.5ZM82.44-1.5L97.64-1.5 97.64 0 80.94 0 80.94-29 82.44-29 82.44-1.5ZM121.69-3.95L122.79-2.95Q120.04 0.5 113.79 0.5 107.54 0.5 104.84-3.05 102.14-6.6 102.14-14.5 102.14-22.4 104.84-25.95 107.54-29.5 113.79-29.5L113.79-29.5Q121.04-29.5 123.64-24.75L123.64-24.75 111.39-14.5 109.04-14.5 121.69-25.05Q119.49-28 113.79-28L113.79-28Q111.29-28 109.59-27.48 107.89-26.95 106.47-25.53 105.04-24.1 104.34-21.38 103.64-18.65 103.64-14.5 103.64-10.35 104.34-7.63 105.04-4.9 106.47-3.48 107.89-2.05 109.59-1.53 111.29-1 113.79-1L113.79-1Q119.49-1 121.69-3.95L121.69-3.95ZM132.29 0L130.79 0 130.79-29 132.29-29 148.59-2.75 148.59-29 150.09-29 150.09 0 148.59 0 132.29-26.3 132.29 0Z" opacity="1" transform="matrix(1,0,0,1,0,0)" fill="#ffffff" class="wordmark-text-0" data-fill-palette-color="primary" id="text-0"></path></svg></g></svg></g><g transform="matrix(1,0,0,1,84.20660352000002,61.82859571828648)"><svg viewBox="0 0 160.22475647999997 18.882842041020123" height="18.882842041020123" width="160.22475647999997"><g transform="matrix(1,0,0,1,0,0)"><svg width="160.22475647999997" viewBox="1.07 -39.11 335.98 39.6" height="18.882842041020123" data-palette-color="#a3c0c4"><path d="M6.27-7.15L6.27-21.66 1.07-21.66 1.51-24.44Q3.44-24.93 4.6-25.54 5.76-26.15 6.53-27.04 7.3-27.93 7.87-29.21 8.45-30.49 9.2-32.32L9.2-32.32 12.04-32.32 12.04-25.88 21.34-25.88 20.29-21.66 12.21-21.66 12.21-8.33Q12.21-7.13 12.55-6.31 12.89-5.49 13.53-4.98 14.16-4.47 15.05-4.24 15.94-4 17.07-4L17.07-4Q18.14-4 19.2-4.2 20.26-4.39 21.22-4.76L21.22-4.76 21.22-1.78Q19.56-0.66 17.66-0.09 15.77 0.49 13.84 0.49L13.84 0.49Q10.16 0.49 8.22-1.51 6.27-3.52 6.27-7.15L6.27-7.15ZM41.87-3.81L41.87-3.81Q41.23-3.27 40.34-2.53 39.45-1.78 38.36-1.11 37.28-0.44 36 0.02 34.71 0.49 33.3 0.49L33.3 0.49Q31.86 0.49 30.62-0.04 29.39-0.56 28.48-1.5 27.56-2.44 27.04-3.75 26.51-5.05 26.51-6.64L26.51-6.64Q26.51-8.3 27.18-9.89 27.85-11.47 29.43-12.72 31-13.96 33.59-14.73 36.18-15.5 39.99-15.5L39.99-15.5 41.77-15.5 41.77-17.5Q41.77-18.58 41.4-19.43 41.04-20.29 40.38-20.9 39.72-21.51 38.8-21.83 37.89-22.14 36.77-22.14L36.77-22.14Q35.89-22.14 34.89-21.94 33.88-21.73 32.91-21.36 31.93-21 31-20.5 30.08-20 29.34-19.41L29.34-19.41 28.9-19.65 27.78-23.75Q30.73-25.29 33.27-25.83 35.81-26.37 38.03-26.37L38.03-26.37Q40.33-26.37 42.12-25.9 43.92-25.44 45.16-24.48 46.41-23.51 47.06-22.03 47.7-20.56 47.7-18.53L47.7-18.53 47.7-6.57Q47.7-6.2 47.76-5.76 47.82-5.32 48.01-4.93 48.19-4.54 48.54-4.27 48.9-4 49.48-4L49.48-4Q49.83-4 50.31-4.1 50.8-4.2 51.29-4.42L51.29-4.42 51.29-1.49Q49.97-0.59 48.67-0.05 47.36 0.49 46.12 0.49L46.12 0.49Q45.14 0.49 44.43 0.12 43.72-0.24 43.23-0.84 42.75-1.44 42.42-2.21 42.09-2.98 41.87-3.81ZM41.77-6.96L41.77-12.62 40.23-12.62Q37.69-12.62 36.14-12.27 34.59-11.91 33.74-11.29 32.88-10.67 32.6-9.85 32.32-9.03 32.32-8.08L32.32-8.08Q32.32-7.08 32.61-6.32 32.91-5.57 33.41-5.05 33.91-4.54 34.59-4.27 35.28-4 36.06-4L36.06-4Q36.64-4 37.28-4.14 37.91-4.27 38.61-4.61 39.3-4.96 40.09-5.52 40.87-6.08 41.77-6.96L41.77-6.96ZM55.17-1.22L56.22-5.66 56.66-5.93Q57.61-5.42 58.65-5 59.69-4.59 60.71-4.31 61.74-4.03 62.71-3.88 63.69-3.74 64.55-3.74L64.55-3.74Q66.77-3.74 68.02-4.66 69.28-5.59 69.28-7.03L69.28-7.03Q69.28-8.01 68.71-8.64 68.13-9.28 67.19-9.73 66.25-10.18 65.06-10.52 63.86-10.86 62.6-11.24 61.35-11.62 60.15-12.11 58.95-12.6 58.02-13.35 57.08-14.11 56.5-15.2 55.93-16.28 55.93-17.87L55.93-17.87Q55.93-19.65 56.7-21.22 57.47-22.78 58.89-23.91 60.32-25.05 62.36-25.71 64.4-26.37 66.94-26.37L66.94-26.37Q67.57-26.37 68.42-26.32 69.26-26.27 70.17-26.16 71.09-26.05 72.02-25.88 72.94-25.71 73.75-25.44L73.75-25.44 72.68-21.07 72.14-20.75Q71.41-21.12 70.56-21.39 69.72-21.66 68.88-21.81 68.04-21.97 67.24-22.06 66.45-22.14 65.84-22.14L65.84-22.14Q63.69-22.14 62.48-21.29 61.27-20.43 61.27-18.99L61.27-18.99Q61.27-17.99 61.86-17.35 62.45-16.7 63.39-16.25 64.33-15.8 65.55-15.47 66.77-15.14 68.02-14.76 69.28-14.38 70.5-13.89 71.72-13.4 72.66-12.65 73.6-11.89 74.19-10.79 74.78-9.69 74.78-8.08L74.78-8.08Q74.78-6.27 73.99-4.7 73.21-3.13 71.77-1.98 70.33-0.83 68.31-0.17 66.28 0.49 63.81 0.49L63.81 0.49Q61.79 0.49 59.52 0.05 57.25-0.39 55.17-1.22L55.17-1.22ZM81.29 0L81.29-39.11 87.2-39.11 87.2 0 81.29 0ZM105.44 0L98.28 0 88.64-13.65 98.7-25.81 104.68-25.81 94.52-14.38 105.44 0ZM149.57-6.59L149.57-3.39Q148.28-2.27 146.7-1.53 145.13-0.78 143.51-0.33 141.88 0.12 140.31 0.31 138.73 0.49 137.46 0.49L137.46 0.49Q133.87 0.49 130.79-0.76 127.7-2 125.43-4.28 123.16-6.57 121.86-9.8 120.57-13.04 120.57-16.99L120.57-16.99Q120.57-20.02 121.33-22.62 122.08-25.22 123.43-27.36 124.77-29.49 126.62-31.15 128.48-32.81 130.68-33.95 132.87-35.08 135.34-35.67 137.8-36.25 140.39-36.25L140.39-36.25Q141.22-36.25 142.27-36.18 143.32-36.11 144.52-35.95 145.72-35.79 147-35.53 148.28-35.28 149.6-34.89L149.6-34.89 148.62-30.15 148.13-29.91Q145.59-31.08 143.38-31.52 141.17-31.96 139.56-31.96L139.56-31.96Q136.78-31.96 134.44-30.9 132.09-29.83 130.41-27.98 128.72-26.12 127.78-23.6 126.84-21.07 126.84-18.16L126.84-18.16Q126.84-15.31 127.72-12.74 128.6-10.18 130.3-8.24 131.99-6.3 134.46-5.15 136.93-4 140.12-4L140.12-4Q142.15-4 144.57-4.57 146.98-5.13 149.57-6.59L149.57-6.59ZM170.47-3.81L170.47-3.81Q169.83-3.27 168.94-2.53 168.05-1.78 166.96-1.11 165.88-0.44 164.6 0.02 163.32 0.49 161.9 0.49L161.9 0.49Q160.46 0.49 159.23-0.04 157.99-0.56 157.08-1.5 156.16-2.44 155.64-3.75 155.11-5.05 155.11-6.64L155.11-6.64Q155.11-8.3 155.78-9.89 156.45-11.47 158.03-12.72 159.6-13.96 162.19-14.73 164.78-15.5 168.59-15.5L168.59-15.5 170.37-15.5 170.37-17.5Q170.37-18.58 170-19.43 169.64-20.29 168.98-20.9 168.32-21.51 167.4-21.83 166.49-22.14 165.37-22.14L165.37-22.14Q164.49-22.14 163.49-21.94 162.49-21.73 161.51-21.36 160.53-21 159.6-20.5 158.68-20 157.94-19.41L157.94-19.41 157.5-19.65 156.38-23.75Q159.34-25.29 161.87-25.83 164.41-26.37 166.64-26.37L166.64-26.37Q168.93-26.37 170.72-25.9 172.52-25.44 173.76-24.48 175.01-23.51 175.66-22.03 176.3-20.56 176.3-18.53L176.3-18.53 176.3-6.57Q176.3-6.2 176.36-5.76 176.43-5.32 176.61-4.93 176.79-4.54 177.15-4.27 177.5-4 178.09-4L178.09-4Q178.43-4 178.92-4.1 179.4-4.2 179.89-4.42L179.89-4.42 179.89-1.49Q178.57-0.59 177.27-0.05 175.96 0.49 174.72 0.49L174.72 0.49Q173.74 0.49 173.03 0.12 172.32-0.24 171.84-0.84 171.35-1.44 171.02-2.21 170.69-2.98 170.47-3.81ZM170.37-6.96L170.37-12.62 168.83-12.62Q166.29-12.62 164.74-12.27 163.19-11.91 162.34-11.29 161.48-10.67 161.2-9.85 160.92-9.03 160.92-8.08L160.92-8.08Q160.92-7.08 161.22-6.32 161.51-5.57 162.01-5.05 162.51-4.54 163.19-4.27 163.88-4 164.66-4L164.66-4Q165.24-4 165.88-4.14 166.51-4.27 167.21-4.61 167.9-4.96 168.69-5.52 169.47-6.08 170.37-6.96L170.37-6.96ZM185.16 0L185.16-39.11 191.07-39.11 191.07 0 185.16 0ZM220.39-5.32L220.39-2.37Q219.32-1.61 218.07-1.07 216.83-0.54 215.51-0.18 214.19 0.17 212.88 0.33 211.58 0.49 210.4 0.49L210.4 0.49Q207.69 0.49 205.36-0.34 203.03-1.17 201.31-2.78 199.59-4.39 198.61-6.75 197.64-9.11 197.64-12.16L197.64-12.16Q197.64-15.41 198.73-18.04 199.83-20.68 201.68-22.52 203.52-24.37 205.95-25.37 208.38-26.37 211.02-26.37L211.02-26.37Q213.21-26.37 215.1-25.65 217-24.93 218.38-23.51 219.76-22.09 220.54-19.97 221.32-17.85 221.32-15.04L221.32-15.04Q221.32-14.36 221.26-13.59 221.2-12.82 221.05-12.08L221.05-12.08 203.76-12.08Q203.76-10.11 204.46-8.59 205.16-7.08 206.43-6.07 207.69-5.05 209.48-4.53 211.26-4 213.41-4L213.41-4Q214.02-4 214.84-4.05 215.65-4.1 216.58-4.25 217.51-4.39 218.49-4.65 219.46-4.91 220.39-5.32L220.39-5.32ZM203.76-14.97L215.82-14.97Q215.82-16.75 215.37-18.09 214.92-19.43 214.14-20.34 213.36-21.24 212.32-21.69 211.28-22.14 210.09-22.14L210.09-22.14Q208.74-22.14 207.6-21.61 206.45-21.07 205.6-20.1 204.74-19.14 204.25-17.82 203.76-16.5 203.76-14.97L203.76-14.97ZM228.08 0L228.08-25.88 232.86-25.88 233.69-21.46Q234.55-22.24 235.62-23.11 236.7-23.97 237.97-24.69 239.24-25.42 240.64-25.89 242.04-26.37 243.56-26.37L243.56-26.37Q245.34-26.37 246.79-25.7 248.24-25.02 249.27-23.82 250.29-22.61 250.86-20.92 251.42-19.24 251.42-17.24L251.42-17.24 251.42 0 245.49 0 245.49-16.53Q245.49-17.85 245.12-18.85 244.75-19.85 244.11-20.51 243.46-21.17 242.57-21.51 241.68-21.85 240.65-21.85L240.65-21.85Q238.84-21.85 237.23-20.92 235.62-20 233.99-18.48L233.99-18.48 233.99 0 228.08 0ZM277.32-7.45L277.32-21.07Q275.73-21.75 274.47-21.95 273.22-22.14 272.41-22.14L272.41-22.14Q270.43-22.14 268.88-21.44 267.33-20.73 266.28-19.48 265.23-18.24 264.68-16.52 264.14-14.79 264.14-12.77L264.14-12.77Q264.14-10.94 264.6-9.35 265.06-7.76 265.92-6.57 266.77-5.37 267.98-4.69 269.19-4 270.68-4L270.68-4Q272.44-4 274.11-4.92 275.78-5.83 277.32-7.45L277.32-7.45ZM277.32-25.76L277.32-39.11 283.25-39.11 283.25 0 278.42 0 277.61-4.32Q276.76-3.54 275.74-2.7 274.73-1.86 273.53-1.15 272.34-0.44 270.96 0.02 269.58 0.49 268.02 0.49L268.02 0.49Q265.67 0.49 263.82-0.55 261.96-1.59 260.66-3.31 259.35-5.03 258.67-7.25 257.98-9.47 257.98-11.84L257.98-11.84Q257.98-14.97 259.12-17.63 260.25-20.29 262.23-22.23 264.21-24.17 266.87-25.27 269.53-26.37 272.58-26.37L272.58-26.37Q273.97-26.37 275.21-26.17 276.44-25.98 277.32-25.76L277.32-25.76ZM305.37-3.81L305.37-3.81Q304.73-3.27 303.84-2.53 302.95-1.78 301.86-1.11 300.78-0.44 299.5 0.02 298.21 0.49 296.8 0.49L296.8 0.49Q295.36 0.49 294.13-0.04 292.89-0.56 291.98-1.5 291.06-2.44 290.54-3.75 290.01-5.05 290.01-6.64L290.01-6.64Q290.01-8.3 290.68-9.89 291.35-11.47 292.93-12.72 294.5-13.96 297.09-14.73 299.68-15.5 303.49-15.5L303.49-15.5 305.27-15.5 305.27-17.5Q305.27-18.58 304.9-19.43 304.54-20.29 303.88-20.9 303.22-21.51 302.3-21.83 301.39-22.14 300.27-22.14L300.27-22.14Q299.39-22.14 298.39-21.94 297.38-21.73 296.41-21.36 295.43-21 294.5-20.5 293.58-20 292.84-19.41L292.84-19.41 292.4-19.65 291.28-23.75Q294.24-25.29 296.77-25.83 299.31-26.37 301.54-26.37L301.54-26.37Q303.83-26.37 305.62-25.9 307.42-25.44 308.66-24.48 309.91-23.51 310.56-22.03 311.2-20.56 311.2-18.53L311.2-18.53 311.2-6.57Q311.2-6.2 311.26-5.76 311.33-5.32 311.51-4.93 311.69-4.54 312.05-4.27 312.4-4 312.99-4L312.99-4Q313.33-4 313.82-4.1 314.3-4.2 314.79-4.42L314.79-4.42 314.79-1.49Q313.47-0.59 312.17-0.05 310.86 0.49 309.62 0.49L309.62 0.49Q308.64 0.49 307.93 0.12 307.22-0.24 306.74-0.84 306.25-1.44 305.92-2.21 305.59-2.98 305.37-3.81ZM305.27-6.96L305.27-12.62 303.73-12.62Q301.19-12.62 299.64-12.27 298.09-11.91 297.24-11.29 296.38-10.67 296.1-9.85 295.82-9.03 295.82-8.08L295.82-8.08Q295.82-7.08 296.12-6.32 296.41-5.57 296.91-5.05 297.41-4.54 298.09-4.27 298.78-4 299.56-4L299.56-4Q300.14-4 300.78-4.14 301.41-4.27 302.11-4.61 302.8-4.96 303.59-5.52 304.37-6.08 305.27-6.96L305.27-6.96ZM320.06 0L320.06-25.88 324.85-25.88 325.68-18.16Q326.02-18.8 326.39-19.47 326.75-20.14 327.12-20.76 327.48-21.39 327.8-21.9 328.12-22.41 328.34-22.75L328.34-22.75Q328.85-23.51 329.5-24.18 330.15-24.85 330.9-25.33 331.66-25.81 332.54-26.09 333.42-26.37 334.44-26.37L334.44-26.37Q335.15-26.37 335.86-26.2 336.57-26.03 337.05-25.66L337.05-25.66 336.42-20.21Q335.98-20.34 335.39-20.37 334.81-20.41 334.35-20.41L334.35-20.41Q332.78-20.41 331.56-19.96 330.34-19.51 329.35-18.71 328.36-17.92 327.55-16.85 326.73-15.77 325.97-14.53L325.97-14.53 325.97 0 320.06 0Z" opacity="1" transform="matrix(1,0,0,1,0,0)" fill="#ffffff" class="slogan-text-1" data-fill-palette-color="secondary" id="text-1"></path></svg></g></svg></g></svg></g></svg></g><g transform="matrix(1,0,0,1,81.42986327039999,92.51997345030797)"><svg viewBox="0 0 81.5716334592 37.4203495710216" height="37.4203495710216" width="81.5716334592"><g><svg xmlns="http://www.w3.org/2000/svg" version="1.1" data-icon="task" data-container-transform="translate(0 34)" viewBox="0 35.281 128 58.719" x="0" y="0" height="37.4203495710216" width="81.5716334592" class="icon-icon-0" data-fill-palette-color="accent" id="icon-0"><path d="M58.781 1.281l-31.063 30.969-12.969-13.156-5.688 5.625 15.781 16 2.844 2.844 2.844-2.844 33.906-33.781-5.656-5.656z m-55.281 2.719c-1.967 0-3.5 1.533-3.5 3.5v49c0 1.967 1.533 3.5 3.5 3.5h49c1.967 0 3.5-1.533 3.5-3.5v-36.406l-4 4v31.906h-48v-48h43.188l4-4h-47.688z m64.5 12v4h60v-4h-60z m0 12v4h50v-4h-50z m0 12v4h54v-4h-54z" transform="translate(0 34)" fill="#ffffff" data-fill-palette-color="accent"></path></svg></g></svg></g><g></g></svg></g></svg></g><g><path d="M102.672 46.821A122.216 122.216 0 0 1 292.848 46.821L288.337 46.821A117.705 117.705 0 0 0 107.183 46.821L102.672 46.821M102.672 200.379A122.216 122.216 0 0 0 292.848 200.379L288.337 200.379A117.705 117.705 0 0 1 107.183 200.379L102.672 200.379" fill="#ffffff" stroke="transparent" data-fill-palette-color="tertiary"></path></g></svg></g><defs></defs></svg><rect width="395.52" height="247.2" fill="none" stroke="none" visibility="hidden"></rect></g></svg></g></svg>